<mxfile host="app.diagrams.net" modified="2022-11-13T16:35:13.678Z" agent="5.0 (Windows)" etag="2EuNfDQrXrRGq51D8OVI" version="20.5.3" type="github">
  <diagram id="C5RBs43oDa-KdzZeNtuy" name="Page-1">
    <mxGraphModel dx="2249" dy="1882" grid="1" gridSize="10" guides="1" tooltips="1" connect="1" arrows="1" fold="1" page="1" pageScale="1" pageWidth="827" pageHeight="1169" math="0" shadow="0">
      <root>
        <mxCell id="WIyWlLk6GJQsqaUBKTNV-0" />
        <mxCell id="WIyWlLk6GJQsqaUBKTNV-1" parent="WIyWlLk6GJQsqaUBKTNV-0" />
        <mxCell id="UPsKfftQwJRPj4qGPjUT-1" value="&lt;div&gt;Controller&lt;/div&gt;" style="swimlane;whiteSpace=wrap;html=1;fillColor=#fff2cc;strokeColor=#d6b656;gradientColor=none;swimlaneFillColor=#FFF2CC;" parent="WIyWlLk6GJQsqaUBKTNV-1" vertex="1">
          <mxGeometry x="-140" y="-230" width="490" height="360" as="geometry">
            <mxRectangle x="150" y="270" width="100" height="30" as="alternateBounds" />
          </mxGeometry>
        </mxCell>
        <mxCell id="UPsKfftQwJRPj4qGPjUT-6" value="&lt;p style=&quot;margin:0px;margin-top:4px;text-align:center;&quot;&gt;&lt;b&gt;Thread Manager&lt;br&gt;&lt;/b&gt;&lt;/p&gt;&lt;hr size=&quot;1&quot;&gt;&lt;p style=&quot;margin:0px;margin-left:4px;&quot;&gt;+ ListeThread: Thread[] &lt;br&gt;&lt;/p&gt;&lt;hr size=&quot;1&quot;&gt;&lt;p style=&quot;margin:0px;margin-left:4px;&quot;&gt;+ creerThread(): Thread&lt;br&gt;&lt;/p&gt;" style="verticalAlign=top;align=left;overflow=fill;fontSize=12;fontFamily=Helvetica;html=1;fillColor=#ffe6cc;strokeColor=#d79b00;" parent="UPsKfftQwJRPj4qGPjUT-1" vertex="1">
          <mxGeometry x="280" y="40" width="160" height="90" as="geometry" />
        </mxCell>
        <mxCell id="UPsKfftQwJRPj4qGPjUT-7" value="&lt;p style=&quot;margin:0px;margin-top:4px;text-align:center;&quot;&gt;&lt;b&gt;Database Manager&lt;br&gt;&lt;/b&gt;&lt;/p&gt;&lt;hr size=&quot;1&quot;&gt;&lt;hr size=&quot;1&quot;&gt;&lt;p style=&quot;margin:0px;margin-left:4px;&quot;&gt;+ SauvegarderConv(Conversation): void&lt;br&gt;&lt;/p&gt;" style="verticalAlign=top;align=left;overflow=fill;fontSize=12;fontFamily=Helvetica;html=1;fillColor=#ffe6cc;strokeColor=#d79b00;" parent="UPsKfftQwJRPj4qGPjUT-1" vertex="1">
          <mxGeometry x="120" y="210" width="250" height="70" as="geometry" />
        </mxCell>
        <mxCell id="UPsKfftQwJRPj4qGPjUT-5" value="&lt;p style=&quot;margin:0px;margin-top:4px;text-align:center;&quot;&gt;&lt;b&gt;Network Manager&lt;br&gt;&lt;/b&gt;&lt;/p&gt;&lt;hr size=&quot;1&quot;&gt;&lt;hr size=&quot;1&quot;&gt;&lt;p style=&quot;margin:0px;margin-left:4px;&quot;&gt;+ EnvoyerMessage(Message) : void&lt;br&gt;&lt;/p&gt;&lt;p style=&quot;margin:0px;margin-left:4px;&quot;&gt;&lt;br&gt;&lt;/p&gt;&lt;p style=&quot;margin:0px;margin-left:4px;&quot;&gt;&lt;br&gt;&lt;/p&gt;" style="verticalAlign=top;align=left;overflow=fill;fontSize=12;fontFamily=Helvetica;html=1;fillColor=#ffe6cc;strokeColor=#d79b00;" parent="UPsKfftQwJRPj4qGPjUT-1" vertex="1">
          <mxGeometry x="20" y="90" width="220" height="70" as="geometry" />
        </mxCell>
        <mxCell id="UPsKfftQwJRPj4qGPjUT-2" value="&lt;div&gt;Views&lt;/div&gt;" style="swimlane;whiteSpace=wrap;html=1;fillColor=#e1d5e7;strokeColor=#9673a6;swimlaneFillColor=#E1D5E7;" parent="WIyWlLk6GJQsqaUBKTNV-1" vertex="1">
          <mxGeometry x="230" y="450" width="570" height="340" as="geometry">
            <mxRectangle x="150" y="270" width="100" height="30" as="alternateBounds" />
          </mxGeometry>
        </mxCell>
        <mxCell id="UPsKfftQwJRPj4qGPjUT-47" value="&lt;p style=&quot;margin:0px;margin-top:4px;text-align:center;&quot;&gt;&lt;b&gt;InterfaceMenu&lt;/b&gt;&lt;br&gt;&lt;/p&gt;&lt;hr size=&quot;1&quot;&gt;&lt;hr size=&quot;1&quot;&gt;&lt;p style=&quot;margin:0px;margin-left:4px;&quot;&gt;+ afficherListeUser(): void&lt;/p&gt;&lt;p style=&quot;margin:0px;margin-left:4px;&quot;&gt;+ afficherNouvelleConv(): void&lt;br&gt;&lt;/p&gt;" style="verticalAlign=top;align=left;overflow=fill;fontSize=12;fontFamily=Helvetica;html=1;fillColor=#C3ABD0;" parent="UPsKfftQwJRPj4qGPjUT-2" vertex="1">
          <mxGeometry x="20" y="195" width="200" height="90" as="geometry" />
        </mxCell>
        <mxCell id="GiMUJ_xKoqUu7y3irece-8" value="&lt;p style=&quot;margin:0px;margin-top:4px;text-align:center;&quot;&gt;&lt;b&gt;InterfaceApplication&lt;/b&gt;&lt;/p&gt;&lt;hr size=&quot;1&quot;&gt;&lt;hr size=&quot;1&quot;&gt;&lt;p style=&quot;margin:0px;margin-left:4px;&quot;&gt;+ reduireApplication(): void &lt;br&gt;&lt;/p&gt;" style="verticalAlign=top;align=left;overflow=fill;fontSize=12;fontFamily=Helvetica;html=1;fillColor=#C3ABD0;" parent="UPsKfftQwJRPj4qGPjUT-2" vertex="1">
          <mxGeometry x="190" y="45" width="160" height="65" as="geometry" />
        </mxCell>
        <mxCell id="UPsKfftQwJRPj4qGPjUT-19" value="&lt;p style=&quot;margin:0px;margin-top:4px;text-align:center;&quot;&gt;&lt;b&gt;InterfaceConversation&lt;/b&gt;&lt;/p&gt;&lt;hr size=&quot;1&quot;&gt;&lt;hr size=&quot;1&quot;&gt;&lt;p style=&quot;margin:0px;margin-left:4px;&quot;&gt;+ afficherMessage(): void&lt;/p&gt;&lt;p style=&quot;margin:0px;margin-left:4px;&quot;&gt;+ afficherUser(): void &lt;br&gt;&lt;/p&gt;" style="verticalAlign=top;align=left;overflow=fill;fontSize=12;fontFamily=Helvetica;html=1;fillColor=#C3ABD0;" parent="UPsKfftQwJRPj4qGPjUT-2" vertex="1">
          <mxGeometry x="320" y="195" width="160" height="90" as="geometry" />
        </mxCell>
        <mxCell id="GiMUJ_xKoqUu7y3irece-9" value="Extends" style="endArrow=block;endSize=16;endFill=0;html=1;rounded=0;entryX=0.463;entryY=-0.011;entryDx=0;entryDy=0;exitX=0.914;exitY=1.019;exitDx=0;exitDy=0;exitPerimeter=0;entryPerimeter=0;" parent="UPsKfftQwJRPj4qGPjUT-2" target="UPsKfftQwJRPj4qGPjUT-19" edge="1">
          <mxGeometry width="160" relative="1" as="geometry">
            <mxPoint x="319.9999999999998" y="110" as="sourcePoint" />
            <mxPoint x="378.76" y="227.28999999999996" as="targetPoint" />
          </mxGeometry>
        </mxCell>
        <mxCell id="GiMUJ_xKoqUu7y3irece-10" value="Extends" style="endArrow=block;endSize=16;endFill=0;html=1;rounded=0;entryX=0.615;entryY=0.011;entryDx=0;entryDy=0;entryPerimeter=0;exitX=0.325;exitY=1;exitDx=0;exitDy=0;exitPerimeter=0;" parent="UPsKfftQwJRPj4qGPjUT-2" source="GiMUJ_xKoqUu7y3irece-8" target="UPsKfftQwJRPj4qGPjUT-47" edge="1">
          <mxGeometry width="160" relative="1" as="geometry">
            <mxPoint x="230" y="115" as="sourcePoint" />
            <mxPoint x="404.0799999999999" y="204.01000000000022" as="targetPoint" />
          </mxGeometry>
        </mxCell>
        <mxCell id="UPsKfftQwJRPj4qGPjUT-3" value="Model" style="swimlane;whiteSpace=wrap;html=1;fillColor=#dae8fc;strokeColor=#6c8ebf;swimlaneFillColor=#D4E1F5;" parent="WIyWlLk6GJQsqaUBKTNV-1" vertex="1">
          <mxGeometry x="434" y="-325" width="1306" height="700" as="geometry">
            <mxRectangle x="150" y="270" width="100" height="30" as="alternateBounds" />
          </mxGeometry>
        </mxCell>
        <mxCell id="UPsKfftQwJRPj4qGPjUT-9" value="&lt;p style=&quot;margin:0px;margin-top:4px;text-align:center;&quot;&gt;&lt;b&gt;Message&lt;/b&gt;&lt;br&gt;&lt;/p&gt;&lt;hr size=&quot;1&quot;&gt;&lt;div&gt;+ Contenu : String &lt;br&gt;&lt;/div&gt;&lt;div&gt;+ ExpÃ©diteur : User&lt;/div&gt;&lt;div&gt;+ Destinataire : User&lt;br&gt;&lt;/div&gt;" style="verticalAlign=top;align=left;overflow=fill;fontSize=12;fontFamily=Helvetica;html=1;fillColor=#7EA6E0;" parent="UPsKfftQwJRPj4qGPjUT-3" vertex="1">
          <mxGeometry x="750" y="230" width="160" height="90" as="geometry" />
        </mxCell>
        <mxCell id="UPsKfftQwJRPj4qGPjUT-10" value="&lt;p style=&quot;margin:0px;margin-top:4px;text-align:center;&quot;&gt;&lt;b&gt;Conversation&lt;/b&gt;&lt;/p&gt;&lt;hr size=&quot;1&quot;&gt;&lt;p style=&quot;margin:0px;margin-left:4px;&quot;&gt;+ UserDistant: User&lt;/p&gt;&lt;p style=&quot;margin:0px;margin-left:4px;&quot;&gt;+ UserLocal: User&lt;br&gt;&lt;/p&gt;&lt;p style=&quot;margin:0px;margin-left:4px;&quot;&gt;+ isOpen: Boolean&lt;/p&gt;&lt;p style=&quot;margin:0px;margin-left:4px;&quot;&gt;+ Messages: UserMessage[]&lt;br&gt;&lt;/p&gt;&lt;hr size=&quot;1&quot;&gt;&lt;p style=&quot;margin:0px;margin-left:4px;&quot;&gt;+ fermerConversation(): void&lt;/p&gt;" style="verticalAlign=top;align=left;overflow=fill;fontSize=12;fontFamily=Helvetica;html=1;fillColor=#7EA6E0;" parent="UPsKfftQwJRPj4qGPjUT-3" vertex="1">
          <mxGeometry x="90" y="220" width="250" height="120" as="geometry" />
        </mxCell>
        <mxCell id="UPsKfftQwJRPj4qGPjUT-13" value="contient" style="endArrow=none;html=1;edgeStyle=orthogonalEdgeStyle;rounded=0;entryX=0;entryY=0.25;entryDx=0;entryDy=0;exitX=1.013;exitY=0.421;exitDx=0;exitDy=0;exitPerimeter=0;" parent="UPsKfftQwJRPj4qGPjUT-3" source="UPsKfftQwJRPj4qGPjUT-10" target="UPsKfftQwJRPj4qGPjUT-35" edge="1">
          <mxGeometry relative="1" as="geometry">
            <mxPoint x="170" y="94.5" as="sourcePoint" />
            <mxPoint x="330" y="94.5" as="targetPoint" />
          </mxGeometry>
        </mxCell>
        <mxCell id="UPsKfftQwJRPj4qGPjUT-14" value="1" style="edgeLabel;resizable=0;html=1;align=left;verticalAlign=bottom;" parent="UPsKfftQwJRPj4qGPjUT-13" connectable="0" vertex="1">
          <mxGeometry x="-1" relative="1" as="geometry" />
        </mxCell>
        <mxCell id="UPsKfftQwJRPj4qGPjUT-15" value="&lt;div&gt;0..*&lt;/div&gt;" style="edgeLabel;resizable=0;html=1;align=right;verticalAlign=bottom;" parent="UPsKfftQwJRPj4qGPjUT-13" connectable="0" vertex="1">
          <mxGeometry x="1" relative="1" as="geometry">
            <mxPoint x="-10" as="offset" />
          </mxGeometry>
        </mxCell>
        <mxCell id="UPsKfftQwJRPj4qGPjUT-20" value="&lt;p style=&quot;margin:0px;margin-top:4px;text-align:center;&quot;&gt;&lt;b&gt;User&lt;/b&gt;&lt;/p&gt;&lt;hr size=&quot;1&quot;&gt;&lt;p style=&quot;margin:0px;margin-left:4px;&quot;&gt;+ pseudo: String&lt;/p&gt;&lt;hr size=&quot;1&quot;&gt;&lt;p style=&quot;margin:0px;margin-left:4px;&quot;&gt;+ changerPseudo(String): void&lt;br&gt;&lt;/p&gt;&lt;div&gt;&lt;br&gt;&lt;/div&gt;&lt;div&gt;+ ouvrirConv(User): void&lt;/div&gt;" style="verticalAlign=top;align=left;overflow=fill;fontSize=12;fontFamily=Helvetica;html=1;fillColor=#7EA6E0;" parent="UPsKfftQwJRPj4qGPjUT-3" vertex="1">
          <mxGeometry x="560" y="45" width="360" height="115" as="geometry" />
        </mxCell>
        <mxCell id="UPsKfftQwJRPj4qGPjUT-26" value="" style="endArrow=none;html=1;edgeStyle=orthogonalEdgeStyle;rounded=0;entryX=0.75;entryY=0;entryDx=0;entryDy=0;exitX=0.25;exitY=1;exitDx=0;exitDy=0;" parent="UPsKfftQwJRPj4qGPjUT-3" source="UPsKfftQwJRPj4qGPjUT-20" target="UPsKfftQwJRPj4qGPjUT-10" edge="1">
          <mxGeometry relative="1" as="geometry">
            <mxPoint x="270" y="240" as="sourcePoint" />
            <mxPoint x="430" y="240" as="targetPoint" />
            <Array as="points">
              <mxPoint x="650" y="185" />
              <mxPoint x="278" y="185" />
              <mxPoint x="278" y="220" />
            </Array>
          </mxGeometry>
        </mxCell>
        <mxCell id="UPsKfftQwJRPj4qGPjUT-27" value="1" style="edgeLabel;resizable=0;html=1;align=left;verticalAlign=bottom;" parent="UPsKfftQwJRPj4qGPjUT-26" connectable="0" vertex="1">
          <mxGeometry x="-1" relative="1" as="geometry">
            <mxPoint y="20" as="offset" />
          </mxGeometry>
        </mxCell>
        <mxCell id="UPsKfftQwJRPj4qGPjUT-28" value="0..*" style="edgeLabel;resizable=0;html=1;align=right;verticalAlign=bottom;" parent="UPsKfftQwJRPj4qGPjUT-26" connectable="0" vertex="1">
          <mxGeometry x="1" relative="1" as="geometry" />
        </mxCell>
        <mxCell id="UPsKfftQwJRPj4qGPjUT-29" value="ouvre" style="edgeLabel;html=1;align=center;verticalAlign=middle;resizable=0;points=[];" parent="UPsKfftQwJRPj4qGPjUT-26" vertex="1" connectable="0">
          <mxGeometry x="-0.5568" y="-2" relative="1" as="geometry">
            <mxPoint y="1" as="offset" />
          </mxGeometry>
        </mxCell>
        <mxCell id="UPsKfftQwJRPj4qGPjUT-35" value="&lt;p style=&quot;margin:0px;margin-top:4px;text-align:center;&quot;&gt;&lt;b&gt;UserMessage&lt;/b&gt;&lt;br&gt;&lt;/p&gt;&lt;hr size=&quot;1&quot;&gt;&lt;p style=&quot;margin:0px;margin-left:4px;&quot;&gt;+ Date : Date &lt;br&gt;&lt;/p&gt;&lt;p style=&quot;margin:0px;margin-left:4px;&quot;&gt;+ Payload : String&lt;/p&gt;&lt;hr size=&quot;1&quot;&gt;&lt;p style=&quot;margin:0px;margin-left:4px;&quot;&gt;+ construireContenu(): String&lt;br&gt;&lt;/p&gt;" style="verticalAlign=top;align=left;overflow=fill;fontSize=12;fontFamily=Helvetica;html=1;fillColor=#7EA6E0;" parent="UPsKfftQwJRPj4qGPjUT-3" vertex="1">
          <mxGeometry x="710" y="400" width="170" height="110" as="geometry" />
        </mxCell>
        <mxCell id="UPsKfftQwJRPj4qGPjUT-36" value="Extends" style="endArrow=block;endSize=16;endFill=0;html=1;rounded=0;entryX=0.5;entryY=0;entryDx=0;entryDy=0;exitX=0.25;exitY=1;exitDx=0;exitDy=0;" parent="UPsKfftQwJRPj4qGPjUT-3" source="UPsKfftQwJRPj4qGPjUT-9" target="UPsKfftQwJRPj4qGPjUT-35" edge="1">
          <mxGeometry width="160" relative="1" as="geometry">
            <mxPoint x="380" y="220" as="sourcePoint" />
            <mxPoint x="540" y="220" as="targetPoint" />
          </mxGeometry>
        </mxCell>
        <mxCell id="UPsKfftQwJRPj4qGPjUT-40" value="&lt;p style=&quot;margin:0px;margin-top:4px;text-align:center;&quot;&gt;&lt;b&gt;ControlMessage&lt;/b&gt;&lt;br&gt;&lt;/p&gt;&lt;hr size=&quot;1&quot;&gt;&amp;nbsp;+ controlType: ControlType&lt;br&gt;&lt;hr size=&quot;1&quot;&gt;&lt;p style=&quot;margin:0px;margin-left:4px;&quot;&gt;+ construireContenu(ControlType): String&lt;br&gt;&lt;/p&gt;" style="verticalAlign=top;align=left;overflow=fill;fontSize=12;fontFamily=Helvetica;html=1;fillColor=#7EA6E0;" parent="UPsKfftQwJRPj4qGPjUT-3" vertex="1">
          <mxGeometry x="936" y="585" width="240" height="85" as="geometry" />
        </mxCell>
        <mxCell id="UPsKfftQwJRPj4qGPjUT-41" value="&lt;b&gt;ControlType: Enum&lt;/b&gt;" style="swimlane;fontStyle=0;childLayout=stackLayout;horizontal=1;startSize=40;horizontalStack=0;resizeParent=1;resizeParentMax=0;resizeLast=0;collapsible=1;marginBottom=0;whiteSpace=wrap;html=1;fillColor=#7EA6E0;" parent="UPsKfftQwJRPj4qGPjUT-3" vertex="1">
          <mxGeometry x="1106" y="40" width="170" height="250" as="geometry" />
        </mxCell>
        <mxCell id="UPsKfftQwJRPj4qGPjUT-42" value="Ack " style="text;strokeColor=none;fillColor=none;align=left;verticalAlign=middle;spacingLeft=4;spacingRight=4;overflow=hidden;points=[[0,0.5],[1,0.5]];portConstraint=eastwest;rotatable=0;whiteSpace=wrap;html=1;" parent="UPsKfftQwJRPj4qGPjUT-41" vertex="1">
          <mxGeometry y="40" width="170" height="30" as="geometry" />
        </mxCell>
        <mxCell id="UPsKfftQwJRPj4qGPjUT-43" value="DemandeConnexionReseau" style="text;strokeColor=none;fillColor=none;align=left;verticalAlign=middle;spacingLeft=4;spacingRight=4;overflow=hidden;points=[[0,0.5],[1,0.5]];portConstraint=eastwest;rotatable=0;whiteSpace=wrap;html=1;" parent="UPsKfftQwJRPj4qGPjUT-41" vertex="1">
          <mxGeometry y="70" width="170" height="30" as="geometry" />
        </mxCell>
        <mxCell id="UPsKfftQwJRPj4qGPjUT-44" value="DemandeFermetureConv" style="text;strokeColor=none;fillColor=none;align=left;verticalAlign=middle;spacingLeft=4;spacingRight=4;overflow=hidden;points=[[0,0.5],[1,0.5]];portConstraint=eastwest;rotatable=0;whiteSpace=wrap;html=1;" parent="UPsKfftQwJRPj4qGPjUT-41" vertex="1">
          <mxGeometry y="100" width="170" height="30" as="geometry" />
        </mxCell>
        <mxCell id="UPsKfftQwJRPj4qGPjUT-65" value="Deconnexion" style="text;strokeColor=none;fillColor=none;align=left;verticalAlign=middle;spacingLeft=4;spacingRight=4;overflow=hidden;points=[[0,0.5],[1,0.5]];portConstraint=eastwest;rotatable=0;whiteSpace=wrap;html=1;" parent="UPsKfftQwJRPj4qGPjUT-41" vertex="1">
          <mxGeometry y="130" width="170" height="30" as="geometry" />
        </mxCell>
        <mxCell id="SIAMkjv2Gq026-A7u568-9" value="ChangementPseudo" style="text;strokeColor=none;fillColor=none;align=left;verticalAlign=middle;spacingLeft=4;spacingRight=4;overflow=hidden;points=[[0,0.5],[1,0.5]];portConstraint=eastwest;rotatable=0;whiteSpace=wrap;html=1;" vertex="1" parent="UPsKfftQwJRPj4qGPjUT-41">
          <mxGeometry y="160" width="170" height="30" as="geometry" />
        </mxCell>
        <mxCell id="SIAMkjv2Gq026-A7u568-10" value="OuvertureConversation" style="text;strokeColor=none;fillColor=none;align=left;verticalAlign=middle;spacingLeft=4;spacingRight=4;overflow=hidden;points=[[0,0.5],[1,0.5]];portConstraint=eastwest;rotatable=0;whiteSpace=wrap;html=1;" vertex="1" parent="UPsKfftQwJRPj4qGPjUT-41">
          <mxGeometry y="190" width="170" height="30" as="geometry" />
        </mxCell>
        <mxCell id="GiMUJ_xKoqUu7y3irece-7" value="NewUserConnected" style="text;strokeColor=none;fillColor=none;align=left;verticalAlign=middle;spacingLeft=4;spacingRight=4;overflow=hidden;points=[[0,0.5],[1,0.5]];portConstraint=eastwest;rotatable=0;whiteSpace=wrap;html=1;" parent="UPsKfftQwJRPj4qGPjUT-41" vertex="1">
          <mxGeometry y="220" width="170" height="30" as="geometry" />
        </mxCell>
        <mxCell id="UPsKfftQwJRPj4qGPjUT-45" value="Extends" style="endArrow=block;endSize=16;endFill=0;html=1;rounded=0;entryX=0.25;entryY=0;entryDx=0;entryDy=0;exitX=0.824;exitY=1.019;exitDx=0;exitDy=0;exitPerimeter=0;" parent="UPsKfftQwJRPj4qGPjUT-3" source="UPsKfftQwJRPj4qGPjUT-9" target="UPsKfftQwJRPj4qGPjUT-40" edge="1">
          <mxGeometry width="160" relative="1" as="geometry">
            <mxPoint x="750" y="415" as="sourcePoint" />
            <mxPoint x="748.76" y="247.29" as="targetPoint" />
          </mxGeometry>
        </mxCell>
        <mxCell id="UPsKfftQwJRPj4qGPjUT-48" value="&lt;div align=&quot;center&quot;&gt;&lt;b&gt;Database&lt;/b&gt;&lt;br&gt;&lt;/div&gt;&lt;hr size=&quot;1&quot;&gt;&amp;nbsp;+ Historique :&amp;nbsp; Conversation[]&lt;br&gt;&lt;p style=&quot;margin:0px;margin-left:4px;&quot;&gt;&lt;br&gt;&lt;/p&gt;" style="verticalAlign=top;align=left;overflow=fill;fontSize=12;fontFamily=Helvetica;html=1;fillColor=#7EA6E0;" parent="UPsKfftQwJRPj4qGPjUT-3" vertex="1">
          <mxGeometry x="376" y="461" width="170" height="60" as="geometry" />
        </mxCell>
        <mxCell id="UPsKfftQwJRPj4qGPjUT-67" value="&lt;p style=&quot;margin:0px;margin-top:4px;text-align:center;&quot;&gt;&lt;b&gt;ListeUser&lt;/b&gt;&lt;br&gt;&lt;/p&gt;&lt;hr size=&quot;1&quot;&gt;&lt;p style=&quot;margin:0px;margin-left:4px;&quot;&gt;+ listeUser: User[]&lt;br&gt;&lt;/p&gt;&lt;hr size=&quot;1&quot;&gt;&lt;p style=&quot;margin:0px;margin-left:4px;&quot;&gt;&lt;br&gt;&lt;/p&gt;" style="verticalAlign=top;align=left;overflow=fill;fontSize=12;fontFamily=Helvetica;html=1;fillColor=#7EA6E0;" parent="UPsKfftQwJRPj4qGPjUT-3" vertex="1">
          <mxGeometry x="1106" y="400" width="160" height="65" as="geometry" />
        </mxCell>
        <mxCell id="GiMUJ_xKoqUu7y3irece-11" value="envoit et reÃ§oit" style="endArrow=none;html=1;edgeStyle=orthogonalEdgeStyle;rounded=0;exitX=0.75;exitY=1;exitDx=0;exitDy=0;entryX=0.363;entryY=-0.035;entryDx=0;entryDy=0;entryPerimeter=0;" parent="UPsKfftQwJRPj4qGPjUT-3" source="UPsKfftQwJRPj4qGPjUT-20" target="UPsKfftQwJRPj4qGPjUT-40" edge="1">
          <mxGeometry relative="1" as="geometry">
            <mxPoint x="660" y="240" as="sourcePoint" />
            <mxPoint x="1026" y="485" as="targetPoint" />
            <Array as="points">
              <mxPoint x="830" y="195" />
              <mxPoint x="936" y="195" />
              <mxPoint x="936" y="348" />
              <mxPoint x="1023" y="348" />
            </Array>
          </mxGeometry>
        </mxCell>
        <mxCell id="GiMUJ_xKoqUu7y3irece-12" value="1" style="edgeLabel;resizable=0;html=1;align=left;verticalAlign=bottom;" parent="GiMUJ_xKoqUu7y3irece-11" connectable="0" vertex="1">
          <mxGeometry x="-1" relative="1" as="geometry">
            <mxPoint x="3" y="20" as="offset" />
          </mxGeometry>
        </mxCell>
        <mxCell id="GiMUJ_xKoqUu7y3irece-13" value="&lt;div&gt;0..*&lt;/div&gt;" style="edgeLabel;resizable=0;html=1;align=right;verticalAlign=bottom;" parent="GiMUJ_xKoqUu7y3irece-11" connectable="0" vertex="1">
          <mxGeometry x="1" relative="1" as="geometry" />
        </mxCell>
        <mxCell id="GiMUJ_xKoqUu7y3irece-15" value="envoit et reÃ§oit" style="endArrow=none;html=1;edgeStyle=orthogonalEdgeStyle;rounded=0;exitX=0.5;exitY=1;exitDx=0;exitDy=0;entryX=0.5;entryY=0;entryDx=0;entryDy=0;" parent="UPsKfftQwJRPj4qGPjUT-3" source="UPsKfftQwJRPj4qGPjUT-67" edge="1" target="UPsKfftQwJRPj4qGPjUT-40">
          <mxGeometry relative="1" as="geometry">
            <mxPoint x="576" y="415" as="sourcePoint" />
            <mxPoint x="1056" y="535" as="targetPoint" />
          </mxGeometry>
        </mxCell>
        <mxCell id="GiMUJ_xKoqUu7y3irece-16" value="1" style="edgeLabel;resizable=0;html=1;align=left;verticalAlign=bottom;" parent="GiMUJ_xKoqUu7y3irece-15" connectable="0" vertex="1">
          <mxGeometry x="-1" relative="1" as="geometry">
            <mxPoint y="20" as="offset" />
          </mxGeometry>
        </mxCell>
        <mxCell id="GiMUJ_xKoqUu7y3irece-17" value="0..*" style="edgeLabel;resizable=0;html=1;align=right;verticalAlign=bottom;" parent="GiMUJ_xKoqUu7y3irece-15" connectable="0" vertex="1">
          <mxGeometry x="1" relative="1" as="geometry" />
        </mxCell>
        <mxCell id="4_mzQuEW0lg58dezS10a-0" value="" style="endArrow=none;html=1;edgeStyle=orthogonalEdgeStyle;rounded=0;entryX=0;entryY=0.5;entryDx=0;entryDy=0;exitX=0.989;exitY=0.348;exitDx=0;exitDy=0;exitPerimeter=0;" parent="UPsKfftQwJRPj4qGPjUT-3" source="UPsKfftQwJRPj4qGPjUT-20" target="UPsKfftQwJRPj4qGPjUT-67" edge="1">
          <mxGeometry relative="1" as="geometry">
            <mxPoint x="826" y="315" as="sourcePoint" />
            <mxPoint x="986" y="315" as="targetPoint" />
            <Array as="points">
              <mxPoint x="1046" y="85" />
              <mxPoint x="1046" y="432" />
            </Array>
          </mxGeometry>
        </mxCell>
        <mxCell id="4_mzQuEW0lg58dezS10a-1" value="1" style="edgeLabel;resizable=0;html=1;align=left;verticalAlign=bottom;" parent="4_mzQuEW0lg58dezS10a-0" connectable="0" vertex="1">
          <mxGeometry x="-1" relative="1" as="geometry" />
        </mxCell>
        <mxCell id="4_mzQuEW0lg58dezS10a-2" value="1" style="edgeLabel;resizable=0;html=1;align=right;verticalAlign=bottom;" parent="4_mzQuEW0lg58dezS10a-0" connectable="0" vertex="1">
          <mxGeometry x="1" relative="1" as="geometry" />
        </mxCell>
        <mxCell id="4_mzQuEW0lg58dezS10a-3" value="rÃ©cupÃ¨re" style="edgeLabel;html=1;align=center;verticalAlign=middle;resizable=0;points=[];" parent="4_mzQuEW0lg58dezS10a-0" vertex="1" connectable="0">
          <mxGeometry x="-0.2267" y="2" relative="1" as="geometry">
            <mxPoint as="offset" />
          </mxGeometry>
        </mxCell>
        <mxCell id="UPsKfftQwJRPj4qGPjUT-16" value="attribue un thread Ã " style="endArrow=none;html=1;edgeStyle=orthogonalEdgeStyle;rounded=0;exitX=1;exitY=0.5;exitDx=0;exitDy=0;entryX=0.5;entryY=0;entryDx=0;entryDy=0;" parent="WIyWlLk6GJQsqaUBKTNV-1" source="UPsKfftQwJRPj4qGPjUT-6" target="UPsKfftQwJRPj4qGPjUT-10" edge="1">
          <mxGeometry relative="1" as="geometry">
            <mxPoint x="630" y="300" as="sourcePoint" />
            <mxPoint x="663" y="70" as="targetPoint" />
            <Array as="points">
              <mxPoint x="300" y="-150" />
              <mxPoint x="649" y="-150" />
            </Array>
          </mxGeometry>
        </mxCell>
        <mxCell id="UPsKfftQwJRPj4qGPjUT-17" value="1" style="edgeLabel;resizable=0;html=1;align=left;verticalAlign=bottom;" parent="UPsKfftQwJRPj4qGPjUT-16" connectable="0" vertex="1">
          <mxGeometry x="-1" relative="1" as="geometry" />
        </mxCell>
        <mxCell id="UPsKfftQwJRPj4qGPjUT-18" value="0..*" style="edgeLabel;resizable=0;html=1;align=right;verticalAlign=bottom;" parent="UPsKfftQwJRPj4qGPjUT-16" connectable="0" vertex="1">
          <mxGeometry x="1" relative="1" as="geometry">
            <mxPoint x="-3" y="-5" as="offset" />
          </mxGeometry>
        </mxCell>
        <mxCell id="UPsKfftQwJRPj4qGPjUT-30" value="" style="endArrow=none;html=1;edgeStyle=orthogonalEdgeStyle;rounded=0;entryX=0.118;entryY=1.007;entryDx=0;entryDy=0;exitX=0.5;exitY=1;exitDx=0;exitDy=0;entryPerimeter=0;" parent="WIyWlLk6GJQsqaUBKTNV-1" source="UPsKfftQwJRPj4qGPjUT-5" target="UPsKfftQwJRPj4qGPjUT-9" edge="1">
          <mxGeometry relative="1" as="geometry">
            <mxPoint x="480" y="410" as="sourcePoint" />
            <mxPoint x="640" y="410" as="targetPoint" />
            <Array as="points">
              <mxPoint x="-35" y="260" />
              <mxPoint x="1030" y="260" />
              <mxPoint x="1030" y="50" />
              <mxPoint x="1203" y="50" />
            </Array>
          </mxGeometry>
        </mxCell>
        <mxCell id="UPsKfftQwJRPj4qGPjUT-31" value="1" style="edgeLabel;resizable=0;html=1;align=left;verticalAlign=bottom;" parent="UPsKfftQwJRPj4qGPjUT-30" connectable="0" vertex="1">
          <mxGeometry x="-1" relative="1" as="geometry">
            <mxPoint y="20" as="offset" />
          </mxGeometry>
        </mxCell>
        <mxCell id="UPsKfftQwJRPj4qGPjUT-32" value="0..*" style="edgeLabel;resizable=0;html=1;align=right;verticalAlign=bottom;" parent="UPsKfftQwJRPj4qGPjUT-30" connectable="0" vertex="1">
          <mxGeometry x="1" relative="1" as="geometry">
            <mxPoint y="21" as="offset" />
          </mxGeometry>
        </mxCell>
        <mxCell id="UPsKfftQwJRPj4qGPjUT-33" value="envoie et reÃ§oit sur le rÃ©seau" style="edgeLabel;html=1;align=center;verticalAlign=middle;resizable=0;points=[];" parent="UPsKfftQwJRPj4qGPjUT-30" vertex="1" connectable="0">
          <mxGeometry x="0.1562" y="-1" relative="1" as="geometry">
            <mxPoint as="offset" />
          </mxGeometry>
        </mxCell>
        <mxCell id="UPsKfftQwJRPj4qGPjUT-49" value="" style="endArrow=none;html=1;edgeStyle=orthogonalEdgeStyle;rounded=0;entryX=0;entryY=0.5;entryDx=0;entryDy=0;exitX=1;exitY=0.5;exitDx=0;exitDy=0;" parent="WIyWlLk6GJQsqaUBKTNV-1" source="UPsKfftQwJRPj4qGPjUT-7" target="UPsKfftQwJRPj4qGPjUT-48" edge="1">
          <mxGeometry relative="1" as="geometry">
            <mxPoint x="410" y="90" as="sourcePoint" />
            <mxPoint x="570" y="90" as="targetPoint" />
            <Array as="points">
              <mxPoint x="260" y="15" />
              <mxPoint x="260" y="170" />
              <mxPoint x="810" y="170" />
            </Array>
          </mxGeometry>
        </mxCell>
        <mxCell id="UPsKfftQwJRPj4qGPjUT-50" value="1" style="edgeLabel;resizable=0;html=1;align=left;verticalAlign=bottom;" parent="UPsKfftQwJRPj4qGPjUT-49" connectable="0" vertex="1">
          <mxGeometry x="-1" relative="1" as="geometry" />
        </mxCell>
        <mxCell id="UPsKfftQwJRPj4qGPjUT-51" value="1" style="edgeLabel;resizable=0;html=1;align=right;verticalAlign=bottom;" parent="UPsKfftQwJRPj4qGPjUT-49" connectable="0" vertex="1">
          <mxGeometry x="1" relative="1" as="geometry" />
        </mxCell>
        <mxCell id="UPsKfftQwJRPj4qGPjUT-52" value="rÃ©cupÃ¨re historique et sauvegarde" style="edgeLabel;html=1;align=center;verticalAlign=middle;resizable=0;points=[];" parent="UPsKfftQwJRPj4qGPjUT-49" vertex="1" connectable="0">
          <mxGeometry x="-0.3338" relative="1" as="geometry">
            <mxPoint as="offset" />
          </mxGeometry>
        </mxCell>
        <mxCell id="UPsKfftQwJRPj4qGPjUT-53" value="" style="endArrow=none;html=1;edgeStyle=orthogonalEdgeStyle;rounded=0;exitX=1;exitY=0.25;exitDx=0;exitDy=0;entryX=-0.008;entryY=0.904;entryDx=0;entryDy=0;entryPerimeter=0;" parent="WIyWlLk6GJQsqaUBKTNV-1" source="UPsKfftQwJRPj4qGPjUT-7" target="UPsKfftQwJRPj4qGPjUT-10" edge="1">
          <mxGeometry relative="1" as="geometry">
            <mxPoint x="620" y="-130" as="sourcePoint" />
            <mxPoint x="780" y="-130" as="targetPoint" />
          </mxGeometry>
        </mxCell>
        <mxCell id="UPsKfftQwJRPj4qGPjUT-54" value="1" style="edgeLabel;resizable=0;html=1;align=left;verticalAlign=bottom;" parent="UPsKfftQwJRPj4qGPjUT-53" connectable="0" vertex="1">
          <mxGeometry x="-1" relative="1" as="geometry" />
        </mxCell>
        <mxCell id="UPsKfftQwJRPj4qGPjUT-55" value="0..*" style="edgeLabel;resizable=0;html=1;align=right;verticalAlign=bottom;" parent="UPsKfftQwJRPj4qGPjUT-53" connectable="0" vertex="1">
          <mxGeometry x="1" relative="1" as="geometry" />
        </mxCell>
        <mxCell id="UPsKfftQwJRPj4qGPjUT-56" value="Restaure" style="edgeLabel;html=1;align=center;verticalAlign=middle;resizable=0;points=[];" parent="UPsKfftQwJRPj4qGPjUT-53" vertex="1" connectable="0">
          <mxGeometry x="0.1588" y="-2" relative="1" as="geometry">
            <mxPoint as="offset" />
          </mxGeometry>
        </mxCell>
        <mxCell id="SIAMkjv2Gq026-A7u568-5" value="sauvegarde" style="endArrow=none;html=1;edgeStyle=orthogonalEdgeStyle;rounded=0;exitX=0.5;exitY=1;exitDx=0;exitDy=0;entryX=0.5;entryY=1;entryDx=0;entryDy=0;" edge="1" parent="WIyWlLk6GJQsqaUBKTNV-1" source="UPsKfftQwJRPj4qGPjUT-7" target="UPsKfftQwJRPj4qGPjUT-35">
          <mxGeometry relative="1" as="geometry">
            <mxPoint x="470" y="120" as="sourcePoint" />
            <mxPoint x="630" y="120" as="targetPoint" />
            <Array as="points">
              <mxPoint x="105" y="230" />
              <mxPoint x="1229" y="230" />
            </Array>
          </mxGeometry>
        </mxCell>
        <mxCell id="SIAMkjv2Gq026-A7u568-6" value="1" style="edgeLabel;resizable=0;html=1;align=left;verticalAlign=bottom;" connectable="0" vertex="1" parent="SIAMkjv2Gq026-A7u568-5">
          <mxGeometry x="-1" relative="1" as="geometry">
            <mxPoint y="20" as="offset" />
          </mxGeometry>
        </mxCell>
        <mxCell id="SIAMkjv2Gq026-A7u568-7" value="0..*" style="edgeLabel;resizable=0;html=1;align=right;verticalAlign=bottom;" connectable="0" vertex="1" parent="SIAMkjv2Gq026-A7u568-5">
          <mxGeometry x="1" relative="1" as="geometry">
            <mxPoint y="25" as="offset" />
          </mxGeometry>
        </mxCell>
      </root>
    </mxGraphModel>
  </diagram>
</mxfile>
